<?xml version="1.0" encoding="utf-8"?>
<!-- Generator: Adobe Illustrator 21.1.0, SVG Export Plug-In . SVG Version: 6.00 Build 0)  -->
<svg version="1.1" id="Capa_1" xmlns="http://www.w3.org/2000/svg" xmlns:xlink="http://www.w3.org/1999/xlink" x="0px" y="0px"
	 viewBox="0 0 205.3 89.3" style="enable-background:new 0 0 205.3 89.3;" xml:space="preserve">
<style type="text/css">
	.st0{fill:#1A1A1A;}
	.st1{fill:#00FFFF;}
	.st2{fill:#F2F2F2;}
	.st3{opacity:0.1;}
	.st4{opacity:6.000000e-02;}
	.st5{opacity:3.000000e-02;}
	.st6{opacity:0.1;fill:none;stroke:#F2F2F2;stroke-width:2;stroke-miterlimit:10;}
	.st7{fill:#6CBE99;}
	.st8{fill:none;stroke:#333333;stroke-width:2;stroke-miterlimit:10;}
	.st9{fill:#FFFFFF;}
	.st10{opacity:5.000000e-02;}
	.st11{fill:#FFFFFF;stroke:#999999;stroke-miterlimit:10;}
	.st12{opacity:0.1;fill:#BFBFBF;}
</style>
<g>
	<g>
		
			<image style="overflow:visible;opacity:0.75;" width="219" height="44" xlink:href="9B238E4B42BF1CB0.png"  transform="matrix(1 0 0 1 -7.6667 -5.3333)">
		</image>
		<g>
			<g>
				<path class="st1" d="M16.8,11.1l-1,1.1c-0.8-0.7-1.7-0.9-2.6-0.9c-2,0-3.7,1.3-3.7,5c0,3.6,1.6,5,3.7,5c1.4,0,2.2-0.5,2.9-1.1
					l0.9,1.1c-0.8,0.8-2,1.4-3.8,1.4c-3.1,0-5.5-2.3-5.5-6.5s2.5-6.5,5.5-6.5C14.8,9.8,15.8,10.3,16.8,11.1z"/>
				<path class="st1" d="M36.3,19.6h-1.6v3H33v-3h-5.2v-1.2l3.6-8.6l1.5,0.6l-3.3,7.8h3.4l0.1-3.5h1.5v3.5h1.6V19.6z"/>
				<path class="st1" d="M49,10h1.8v11h5.7l-0.2,1.6H49V10z"/>
				<path class="st1" d="M76.9,11.1l-1,1.1c-0.8-0.7-1.7-0.9-2.6-0.9c-2,0-3.7,1.3-3.7,5c0,3.6,1.6,5,3.7,5c1.4,0,2.2-0.5,2.9-1.1
					l0.9,1.1c-0.8,0.8-2,1.4-3.8,1.4c-3.1,0-5.5-2.3-5.5-6.5s2.5-6.5,5.5-6.5C74.8,9.8,75.9,10.3,76.9,11.1z"/>
				<path class="st1" d="M96.4,18.5c0,2.5-1.6,4.3-4.3,4.3c-2.7,0-4.2-1.7-4.2-4.3V10h1.8v8.3c0,2,0.8,2.9,2.4,2.9
					c1.6,0,2.4-1,2.4-2.9V10h1.8V18.5z"/>
				<path class="st1" d="M109.1,10h1.8v11h5.7l-0.2,1.6h-7.3V10z"/>
				<path class="st1" d="M136.4,19.6h-1.6v3h-1.7v-3H128v-1.2l3.6-8.6l1.5,0.6l-3.3,7.8h3.4l0.1-3.5h1.5v3.5h1.6V19.6z"/>
				<path class="st1" d="M149.6,11.7c0,0.6,0.2,2.9,0.2,4.8v6h-1.6V10h2.4l4.3,10.9c0-0.6-0.2-2.6-0.2-4.9v-6h1.6v12.5h-2.4
					L149.6,11.7z"/>
				<path class="st1" d="M177,11.1l-1,1.1c-0.8-0.7-1.7-0.9-2.6-0.9c-2,0-3.7,1.3-3.7,5c0,3.6,1.6,5,3.7,5c1.4,0,2.2-0.5,2.9-1.1
					l0.9,1.1c-0.8,0.8-2,1.4-3.8,1.4c-3.1,0-5.5-2.3-5.5-6.5s2.5-6.5,5.5-6.5C175,9.8,176,10.3,177,11.1z"/>
				<path class="st1" d="M195.7,13c0,1.5-1.1,2.6-2.5,2.9c1.5,0.1,2.9,1.1,2.9,3.1c0,2.2-1.8,3.8-4.4,3.8c-1.5,0-3-0.5-4-1.7
					l1.1-0.9c0.7,0.8,1.7,1.2,2.7,1.2c1.7,0,2.7-0.9,2.7-2.4c0-1.7-1.1-2.3-2.5-2.3h-1.1l0.2-1.3h0.7c1.2,0,2.3-0.7,2.3-2.1
					c0-1.3-1-2-2.3-2c-1.1,0-1.8,0.4-2.6,1.1l-0.9-1c1.1-1,2.3-1.5,3.7-1.5C194.2,9.8,195.7,11.3,195.7,13z"/>
			</g>
		</g>
	</g>
	<g class="st10">
		<g>
			<g>
				<g>
					<path class="st11" d="M128.6,32h-18.8c-0.2,0-0.4,0.2-0.4,0.4v4.9c1,1.6,1.6,2.6,2,3.4c0,0.2-0.2,0.2-0.2,0.2
						c-1.2-1.6-2.6-2.8-3-3.4l0,0c-4.4-4-10.1-6.3-16.6-6.3c-6.9,0-13.1,2.8-17.6,7.3c-0.2,0.2-0.6,0-0.6-0.4v-5.7
						c0-0.2-0.2-0.4-0.4-0.4H61.8c-0.2,0-0.2,0-0.4,0.2l-19,27.7l0,0l1.6,3.4c0,0.2-0.2,0.2-0.2,0.2l-2.2-3.2l0,0l0,0l-3.4-4.9
						c0-0.2,0-0.4,0-0.4l14.8-22.2c0.2-0.4,0-0.8-0.4-0.8H41c-0.2,0-0.2,0-0.4,0.2L27.6,53l0,0V32.4c0-0.2-0.2-0.4-0.4-0.4H16.1
						c-0.2,0-0.4,0.2-0.4,0.4v45.7c0,0.2,0.2,0.4,0.4,0.4h11.1c0.2,0,0.4-0.2,0.4-0.4V58.5h0.2l7.5,11.9l5.1,8.1
						c0,0.2,0.2,0.2,0.4,0.2H44h9.7c0.4,0,0.6-0.4,0.4-0.6L49.1,71c0-0.2,0-0.4,0-0.4l12.1-21.2h0.2v28.7c0,0.2,0.2,0.4,0.4,0.4
						h11.1c0.2,0,0.4-0.2,0.4-0.4v-5.5l0,0c-0.2-0.2-0.8-1.4-1.8-3.4c0-0.2,0.2-0.2,0.2-0.2c0.6,0.8,1.6,2,2.8,3.4l0,0
						c4.4,4.2,10.5,6.9,17.4,6.9c11.1,0,20.4-7.1,23.5-17.8c0-0.2-0.2-0.6-0.4-0.6h-11.7c-0.2,0-0.2,0-0.4,0.2
						c-2,4.4-5.9,7.7-11.1,7.7c-7.7,0-12.5-6.7-12.5-13.8s4.9-13.5,12.5-13.5c5.1,0,9.3,3.2,11.1,7.9c0,0.2,0.2,0.2,0.4,0.2H115
						c0.2,0,0.4-0.2,0.4-0.4c-0.4-2.2-1.2-4.2-2.4-6.1c-0.2-0.2,0-0.6,0.4-0.6h3.6c0.2,0,0.4,0.2,0.4,0.4v35.2
						c0,0.2,0.2,0.4,0.4,0.4H129c0.2,0,0.4-0.2,0.4-0.4V32.4C129,32.2,128.8,32,128.6,32z"/>
					<path class="st11" d="M186.8,51.8c-2-0.8-8.1-3.2-9.1-5.1c-0.4-0.6-0.4-1.2-0.4-2c0-2.2,2-3.6,4-3.6c2.8,0,3.8,1.8,4.2,4.2
						c0,0.2,0.2,0.4,0.4,0.4h10.9c0.2,0,0.4-0.2,0.4-0.4c-0.2-3.4-0.8-5.9-3-8.7c-3-3.6-8.1-5.3-12.5-5.3c-5.7,0-11.3,2.4-14.4,7.1
						c-0.4,0.6-1,1.8-1.4,3.4c0,0.2-0.2,0.2-0.2,0c0-1,0.4-2.4,1-3.8v-5.7c-0.2-0.2-0.4-0.4-0.6-0.4H155c-0.2,0-0.4,0.2-0.4,0.4
						v27.7c0,3.2-0.2,8.9-6.1,8.9c-5.9,0-5.9-5.1-5.9-8.9V43.3l-3.4-0.6c-0.2,0-0.2-0.2,0-0.2h3.6l0,0c0,0,0,0,0.2,0h6.3
						c0.2,0,0.4-0.2,0.4-0.4v-9.7c0-0.2-0.2-0.4-0.4-0.4h-18c-0.2,0-0.4,0.2-0.4,0.4v27.7c0,7.9,1.6,11.3,4.7,14.4
						c3,3,7.3,5.1,12.9,5.1c3.4,0,9.5-0.8,13.3-5.1c1.2-1.4,2-2.6,2.8-3.8l0,0c0.2-0.2,1-2.2,1.4-4c0-0.2,0.2-0.2,0.2,0
						c0,0.8-0.2,2.2-0.6,4c2.4,5.9,8.5,8.9,15.8,8.9c9.1,0,16.2-4.4,16.2-14.4C197.7,57.9,193.1,54.6,186.8,51.8z M181.3,69.4
						c-3.2,0-4.7-3-4.9-5.9c0-0.2-0.2-0.4-0.4-0.4H167c-0.2,0-0.4-0.2-0.4-0.4c0-0.8,0-1.6,0-2.6v-8.3c0-0.4,0.6-0.6,0.8-0.2
						c2,3,5.7,5.1,9.5,6.7c1.4,0.6,2.8,1.2,4.2,1.8c2.4,1,5.1,2,5.1,5.1C186,67.6,183.8,69.4,181.3,69.4z"/>
				</g>
			</g>
		</g>
	</g>
</g>
</svg>
