<?xml version="1.0" encoding="utf-8"?>
<!-- Generator: Adobe Illustrator 21.1.0, SVG Export Plug-In . SVG Version: 6.00 Build 0)  -->
<svg version="1.1" id="Capa_1" xmlns="http://www.w3.org/2000/svg" xmlns:xlink="http://www.w3.org/1999/xlink" x="0px" y="0px"
	 viewBox="0 0 349.3 92.8" style="enable-background:new 0 0 349.3 92.8;" xml:space="preserve">
<style type="text/css">
	.st0{fill:#6CBE99;}
	.st1{fill:#6CBE99;}
	.st2{fill:#6CBE99;}
	.st3{opacity:0.1;}
	.st4{opacity:0.1;fill:none;stroke:#6CBE99;stroke-width:2;stroke-miterlimit:10;}
	.st5{fill:#6CBE99;}
	.st6{fill:none;stroke:#6CBE99;stroke-width:2;stroke-miterlimit:10;}
	.st7{fill:#6CBE99;}
	.st8{fill:#6CBE99;}
	.st9{opacity:5.000000e-02;}
	.st10{fill:#6CBE99;stroke:#6CBE99;stroke-miterlimit:10;}
	.st11{opacity:0.1;fill:#6CBE99;}
</style>
<g>
	<path class="st7" d="M216.6,1.6h-36.1c-0.4,0-0.8,0.4-0.8,0.8v9.3c1.9,3.1,3.1,5,3.9,6.6c0,0.4-0.4,0.4-0.4,0.4
		c-2.3-3.1-5-5.4-5.8-6.6l0,0C168.8,4.3,158,0,145.5,0c-13.2,0-25.2,5.4-33.8,14c-0.4,0.4-1.2,0-1.2-0.8V2.3c0-0.4-0.4-0.8-0.8-0.8
		H88.5c-0.4,0-0.4,0-0.8,0.4L51.2,55.1l0,0l3.1,6.6c0,0.4-0.4,0.4-0.4,0.4l-4.3-6.2l0,0l0,0l-6.6-9.3c0-0.4,0-0.8,0-0.8L71.4,3.1
		c0.4-0.8,0-1.6-0.8-1.6H48.5c-0.4,0-0.4,0-0.8,0.4l-24.8,40l0,0V2.3c0-0.4-0.4-0.8-0.8-0.8H0.8C0.4,1.6,0,1.9,0,2.3V90
		c0,0.4,0.4,0.8,0.8,0.8h21.3c0.4,0,0.8-0.4,0.8-0.8V52.4h0.4l14.4,22.9l9.7,15.5c0,0.4,0.4,0.4,0.8,0.4h6.2H73
		c0.8,0,1.2-0.8,0.8-1.2L64,76.5c0-0.4,0-0.8,0-0.8l23.3-40.8h0.4V90c0,0.4,0.4,0.8,0.8,0.8h21.3c0.4,0,0.8-0.4,0.8-0.8V79.6l0,0
		c-0.4-0.4-1.6-2.7-3.5-6.6c0-0.4,0.4-0.4,0.4-0.4c1.2,1.6,3.1,3.9,5.4,6.6l0,0c8.5,8.2,20.2,13.2,33.4,13.2
		c21.3,0,39.2-13.6,45-34.2c0-0.4-0.4-1.2-0.8-1.2h-22.5c-0.4,0-0.4,0-0.8,0.4c-3.9,8.5-11.3,14.7-21.3,14.7
		c-14.7,0-24.1-12.8-24.1-26.4s9.3-26,24.1-26c9.7,0,17.9,6.2,21.3,15.1c0,0.4,0.4,0.4,0.8,0.4h22.5c0.4,0,0.8-0.4,0.8-0.8
		c-0.8-4.3-2.3-8.2-4.7-11.6c-0.4-0.4,0-1.2,0.8-1.2h7c0.4,0,0.8,0.4,0.8,0.8V90c0,0.4,0.4,0.8,0.8,0.8h21.3c0.4,0,0.8-0.4,0.8-0.8
		V2.3C217.4,1.9,217,1.6,216.6,1.6z"/>
	<path class="st7" d="M328.4,39.6c-3.9-1.6-15.5-6.2-17.5-9.7c-0.8-1.2-0.8-2.3-0.8-3.9c0-4.3,3.9-7,7.8-7c5.4,0,7.4,3.5,8.2,8.2
		c0,0.4,0.4,0.8,0.8,0.8h21c0.4,0,0.8-0.4,0.8-0.8c-0.4-6.6-1.6-11.3-5.8-16.7c-5.8-7-15.5-10.1-24.1-10.1
		c-10.9,0-21.7,4.7-27.6,13.6c-0.8,1.2-1.9,3.5-2.7,6.6c0,0.4-0.4,0.4-0.4,0c0-1.9,0.8-4.7,1.9-7.4V2.3c-0.4-0.4-0.8-0.8-1.2-0.8
		h-21.3c-0.4,0-0.8,0.4-0.8,0.8v53.2c0,6.2-0.4,17.1-11.6,17.1c-11.3,0-11.3-9.7-11.3-17.1V23.3l-6.6-1.2c-0.4,0-0.4-0.4,0-0.4h7
		l0,0c0,0,0,0,0.4,0h12c0.4,0,0.8-0.4,0.8-0.8V2.3c0-0.4-0.4-0.8-0.8-0.8H222c-0.4,0-0.8,0.4-0.8,0.8v53.2c0,15.1,3.1,21.7,8.9,27.6
		c5.8,5.8,14,9.7,24.8,9.7c6.6,0,18.2-1.6,25.6-9.7c2.3-2.7,3.9-5,5.4-7.4l0,0c0.4-0.4,1.9-4.3,2.7-7.8c0-0.4,0.4-0.4,0.4,0
		c0,1.6-0.4,4.3-1.2,7.8c4.7,11.3,16.3,17.1,30.3,17.1c17.5,0,31.1-8.5,31.1-27.6C349.3,51.2,340.4,45,328.4,39.6z M317.9,73.4
		c-6.2,0-8.9-5.8-9.3-11.3c0-0.4-0.4-0.8-0.8-0.8h-17.5c-0.4,0-0.8-0.4-0.8-0.8c0-1.6,0-3.1,0-5V39.6c0-0.8,1.2-1.2,1.6-0.4
		C295,45,302,48.9,309.3,52c2.7,1.2,5.4,2.3,8.2,3.5c4.7,1.9,9.7,3.9,9.7,9.7C326.8,69.9,322.5,73.4,317.9,73.4z"/>
</g>
</svg>
